<mxfile host="app.diagrams.net" modified="2023-09-30T16:45:31.832Z" agent="Mozilla/5.0 (X11; Linux x86_64; rv:109.0) Gecko/20100101 Firefox/118.0" etag="hCIq4uiP64yUzOjM00gx" version="22.0.0" type="github" pages="2">
  <diagram id="C5RBs43oDa-KdzZeNtuy" name="main">
    <mxGraphModel dx="1416" dy="757" grid="1" gridSize="10" guides="1" tooltips="1" connect="1" arrows="1" fold="1" page="1" pageScale="1" pageWidth="827" pageHeight="1169" math="0" shadow="0">
      <root>
        <mxCell id="WIyWlLk6GJQsqaUBKTNV-0" />
        <mxCell id="WIyWlLk6GJQsqaUBKTNV-1" parent="WIyWlLk6GJQsqaUBKTNV-0" />
        <mxCell id="R9TGq8U2mme78dOF1fop-5" style="edgeStyle=orthogonalEdgeStyle;rounded=1;orthogonalLoop=1;jettySize=auto;html=1;entryX=0.5;entryY=0;entryDx=0;entryDy=0;strokeColor=#23445D;" edge="1" parent="WIyWlLk6GJQsqaUBKTNV-1" source="WIyWlLk6GJQsqaUBKTNV-6" target="WIyWlLk6GJQsqaUBKTNV-7">
          <mxGeometry relative="1" as="geometry" />
        </mxCell>
        <mxCell id="R9TGq8U2mme78dOF1fop-6" style="edgeStyle=orthogonalEdgeStyle;rounded=1;orthogonalLoop=1;jettySize=auto;html=1;entryX=0.5;entryY=0;entryDx=0;entryDy=0;strokeColor=#23445D;" edge="1" parent="WIyWlLk6GJQsqaUBKTNV-1" source="WIyWlLk6GJQsqaUBKTNV-6" target="WIyWlLk6GJQsqaUBKTNV-11">
          <mxGeometry relative="1" as="geometry" />
        </mxCell>
        <mxCell id="R9TGq8U2mme78dOF1fop-7" style="edgeStyle=orthogonalEdgeStyle;rounded=1;orthogonalLoop=1;jettySize=auto;html=1;strokeColor=#23445D;entryX=0.5;entryY=0;entryDx=0;entryDy=0;" edge="1" parent="WIyWlLk6GJQsqaUBKTNV-1" source="WIyWlLk6GJQsqaUBKTNV-6" target="R9TGq8U2mme78dOF1fop-41">
          <mxGeometry relative="1" as="geometry">
            <mxPoint x="790" y="150" as="targetPoint" />
          </mxGeometry>
        </mxCell>
        <mxCell id="WIyWlLk6GJQsqaUBKTNV-6" value="НАЧАЛО" style="rhombus;whiteSpace=wrap;html=1;shadow=0;fontFamily=Helvetica;fontSize=12;align=center;strokeWidth=1;spacing=6;spacingTop=-4;rounded=1;labelBackgroundColor=none;fillColor=#182E3E;strokeColor=#FFFFFF;fontColor=#FFFFFF;" parent="WIyWlLk6GJQsqaUBKTNV-1" vertex="1">
          <mxGeometry x="330" y="30" width="100" height="80" as="geometry" />
        </mxCell>
        <mxCell id="R9TGq8U2mme78dOF1fop-19" style="edgeStyle=orthogonalEdgeStyle;rounded=1;orthogonalLoop=1;jettySize=auto;html=1;exitX=0.5;exitY=1;exitDx=0;exitDy=0;entryX=0.5;entryY=0;entryDx=0;entryDy=0;strokeColor=#23445D;" edge="1" parent="WIyWlLk6GJQsqaUBKTNV-1" source="WIyWlLk6GJQsqaUBKTNV-7" target="R9TGq8U2mme78dOF1fop-9">
          <mxGeometry relative="1" as="geometry" />
        </mxCell>
        <mxCell id="WIyWlLk6GJQsqaUBKTNV-7" value="Подбор специалистов" style="rounded=1;whiteSpace=wrap;html=1;fontSize=12;glass=0;strokeWidth=1;shadow=0;labelBackgroundColor=none;fillColor=#182E3E;strokeColor=#FFFFFF;fontColor=#FFFFFF;" parent="WIyWlLk6GJQsqaUBKTNV-1" vertex="1">
          <mxGeometry x="320" y="150" width="120" height="40" as="geometry" />
        </mxCell>
        <mxCell id="R9TGq8U2mme78dOF1fop-30" value="" style="edgeStyle=orthogonalEdgeStyle;rounded=1;orthogonalLoop=1;jettySize=auto;html=1;strokeColor=#23445D;" edge="1" parent="WIyWlLk6GJQsqaUBKTNV-1" source="WIyWlLk6GJQsqaUBKTNV-11" target="R9TGq8U2mme78dOF1fop-29">
          <mxGeometry relative="1" as="geometry" />
        </mxCell>
        <mxCell id="WIyWlLk6GJQsqaUBKTNV-11" value="Поиск специалиста" style="rounded=1;whiteSpace=wrap;html=1;fontSize=12;glass=0;strokeWidth=1;shadow=0;labelBackgroundColor=none;fillColor=#182E3E;strokeColor=#FFFFFF;fontColor=#FFFFFF;" parent="WIyWlLk6GJQsqaUBKTNV-1" vertex="1">
          <mxGeometry x="100" y="150" width="120" height="40" as="geometry" />
        </mxCell>
        <mxCell id="R9TGq8U2mme78dOF1fop-34" value="" style="edgeStyle=orthogonalEdgeStyle;rounded=1;orthogonalLoop=1;jettySize=auto;html=1;strokeColor=#23445D;exitX=0.5;exitY=1;exitDx=0;exitDy=0;" edge="1" parent="WIyWlLk6GJQsqaUBKTNV-1" source="R9TGq8U2mme78dOF1fop-41" target="R9TGq8U2mme78dOF1fop-33">
          <mxGeometry relative="1" as="geometry">
            <mxPoint x="790" y="190" as="sourcePoint" />
          </mxGeometry>
        </mxCell>
        <mxCell id="R9TGq8U2mme78dOF1fop-40" value="" style="edgeStyle=orthogonalEdgeStyle;rounded=1;orthogonalLoop=1;jettySize=auto;html=1;strokeColor=#23445D;exitX=1;exitY=0.5;exitDx=0;exitDy=0;" edge="1" parent="WIyWlLk6GJQsqaUBKTNV-1" source="R9TGq8U2mme78dOF1fop-41" target="R9TGq8U2mme78dOF1fop-39">
          <mxGeometry relative="1" as="geometry">
            <mxPoint x="850" y="170" as="sourcePoint" />
          </mxGeometry>
        </mxCell>
        <mxCell id="R9TGq8U2mme78dOF1fop-26" value="" style="edgeStyle=orthogonalEdgeStyle;rounded=1;orthogonalLoop=1;jettySize=auto;html=1;strokeColor=#23445D;" edge="1" parent="WIyWlLk6GJQsqaUBKTNV-1" source="R9TGq8U2mme78dOF1fop-9" target="R9TGq8U2mme78dOF1fop-12">
          <mxGeometry relative="1" as="geometry">
            <mxPoint x="380" y="290" as="targetPoint" />
          </mxGeometry>
        </mxCell>
        <mxCell id="R9TGq8U2mme78dOF1fop-9" value="Выбор рода специалиста" style="rounded=1;whiteSpace=wrap;html=1;strokeColor=#FFFFFF;fontColor=#FFFFFF;fillColor=#182E3E;" vertex="1" parent="WIyWlLk6GJQsqaUBKTNV-1">
          <mxGeometry x="320" y="220" width="120" height="40" as="geometry" />
        </mxCell>
        <mxCell id="R9TGq8U2mme78dOF1fop-14" value="" style="edgeStyle=orthogonalEdgeStyle;rounded=1;orthogonalLoop=1;jettySize=auto;html=1;strokeColor=#23445D;" edge="1" parent="WIyWlLk6GJQsqaUBKTNV-1" source="R9TGq8U2mme78dOF1fop-12" target="R9TGq8U2mme78dOF1fop-13">
          <mxGeometry relative="1" as="geometry" />
        </mxCell>
        <mxCell id="R9TGq8U2mme78dOF1fop-16" value="" style="edgeStyle=orthogonalEdgeStyle;rounded=1;orthogonalLoop=1;jettySize=auto;html=1;strokeColor=#23445D;" edge="1" parent="WIyWlLk6GJQsqaUBKTNV-1" source="R9TGq8U2mme78dOF1fop-12" target="R9TGq8U2mme78dOF1fop-15">
          <mxGeometry relative="1" as="geometry">
            <Array as="points">
              <mxPoint x="470" y="310" />
              <mxPoint x="470" y="230" />
            </Array>
          </mxGeometry>
        </mxCell>
        <mxCell id="PYJXt7KxjDppgECjX4CF-2" style="edgeStyle=orthogonalEdgeStyle;rounded=1;orthogonalLoop=1;jettySize=auto;html=1;exitX=1;exitY=0.5;exitDx=0;exitDy=0;strokeColor=#23445D;entryX=0.5;entryY=0;entryDx=0;entryDy=0;" edge="1" parent="WIyWlLk6GJQsqaUBKTNV-1" source="R9TGq8U2mme78dOF1fop-12" target="PYJXt7KxjDppgECjX4CF-0">
          <mxGeometry relative="1" as="geometry">
            <mxPoint x="480" y="430" as="targetPoint" />
            <Array as="points">
              <mxPoint x="480" y="330" />
              <mxPoint x="480" y="420" />
              <mxPoint x="530" y="420" />
            </Array>
          </mxGeometry>
        </mxCell>
        <mxCell id="PYJXt7KxjDppgECjX4CF-8" style="edgeStyle=orthogonalEdgeStyle;rounded=1;orthogonalLoop=1;jettySize=auto;html=1;exitX=1;exitY=0.5;exitDx=0;exitDy=0;entryX=0.5;entryY=0;entryDx=0;entryDy=0;strokeColor=#23445D;" edge="1" parent="WIyWlLk6GJQsqaUBKTNV-1" source="R9TGq8U2mme78dOF1fop-12" target="PYJXt7KxjDppgECjX4CF-6">
          <mxGeometry relative="1" as="geometry">
            <Array as="points">
              <mxPoint x="480" y="330" />
              <mxPoint x="480" y="420" />
              <mxPoint x="690" y="420" />
            </Array>
          </mxGeometry>
        </mxCell>
        <mxCell id="R9TGq8U2mme78dOF1fop-12" value="Анкета" style="rhombus;whiteSpace=wrap;html=1;rounded=1;strokeColor=#FFFFFF;fontColor=#FFFFFF;fillColor=#182E3E;" vertex="1" parent="WIyWlLk6GJQsqaUBKTNV-1">
          <mxGeometry x="330" y="290" width="100" height="80" as="geometry" />
        </mxCell>
        <mxCell id="R9TGq8U2mme78dOF1fop-18" value="" style="edgeStyle=orthogonalEdgeStyle;rounded=1;orthogonalLoop=1;jettySize=auto;html=1;strokeColor=#23445D;" edge="1" parent="WIyWlLk6GJQsqaUBKTNV-1" source="R9TGq8U2mme78dOF1fop-13" target="R9TGq8U2mme78dOF1fop-17">
          <mxGeometry relative="1" as="geometry" />
        </mxCell>
        <mxCell id="R9TGq8U2mme78dOF1fop-13" value="Лайк" style="whiteSpace=wrap;html=1;fillColor=#182E3E;strokeColor=#FFFFFF;fontColor=#FFFFFF;rounded=1;" vertex="1" parent="WIyWlLk6GJQsqaUBKTNV-1">
          <mxGeometry x="320" y="390" width="120" height="40" as="geometry" />
        </mxCell>
        <mxCell id="R9TGq8U2mme78dOF1fop-23" value="" style="edgeStyle=orthogonalEdgeStyle;rounded=1;orthogonalLoop=1;jettySize=auto;html=1;strokeColor=#23445D;" edge="1" parent="WIyWlLk6GJQsqaUBKTNV-1" source="R9TGq8U2mme78dOF1fop-15" target="R9TGq8U2mme78dOF1fop-22">
          <mxGeometry relative="1" as="geometry" />
        </mxCell>
        <mxCell id="R9TGq8U2mme78dOF1fop-15" value="Дизлайк" style="whiteSpace=wrap;html=1;fillColor=#182E3E;strokeColor=#FFFFFF;fontColor=#FFFFFF;rounded=1;" vertex="1" parent="WIyWlLk6GJQsqaUBKTNV-1">
          <mxGeometry x="500" y="210" width="120" height="40" as="geometry" />
        </mxCell>
        <mxCell id="R9TGq8U2mme78dOF1fop-21" style="edgeStyle=orthogonalEdgeStyle;rounded=1;orthogonalLoop=1;jettySize=auto;html=1;exitX=0.5;exitY=1;exitDx=0;exitDy=0;entryX=0;entryY=0.5;entryDx=0;entryDy=0;strokeColor=#23445D;" edge="1" parent="WIyWlLk6GJQsqaUBKTNV-1" source="R9TGq8U2mme78dOF1fop-17" target="R9TGq8U2mme78dOF1fop-12">
          <mxGeometry relative="1" as="geometry">
            <Array as="points">
              <mxPoint x="380" y="550" />
              <mxPoint x="270" y="550" />
              <mxPoint x="270" y="330" />
            </Array>
          </mxGeometry>
        </mxCell>
        <mxCell id="R9TGq8U2mme78dOF1fop-17" value="Добавление в бд user/like айди специалиста" style="whiteSpace=wrap;html=1;fillColor=#182E3E;strokeColor=#FFFFFF;fontColor=#FFFFFF;rounded=1;" vertex="1" parent="WIyWlLk6GJQsqaUBKTNV-1">
          <mxGeometry x="320" y="460" width="120" height="50" as="geometry" />
        </mxCell>
        <mxCell id="R9TGq8U2mme78dOF1fop-24" style="edgeStyle=orthogonalEdgeStyle;rounded=1;orthogonalLoop=1;jettySize=auto;html=1;exitX=0.5;exitY=1;exitDx=0;exitDy=0;strokeColor=#23445D;" edge="1" parent="WIyWlLk6GJQsqaUBKTNV-1" source="R9TGq8U2mme78dOF1fop-22">
          <mxGeometry relative="1" as="geometry">
            <mxPoint x="330" y="330" as="targetPoint" />
            <Array as="points">
              <mxPoint x="560" y="380" />
              <mxPoint x="450" y="380" />
              <mxPoint x="450" y="570" />
              <mxPoint x="240" y="570" />
              <mxPoint x="240" y="330" />
            </Array>
          </mxGeometry>
        </mxCell>
        <mxCell id="R9TGq8U2mme78dOF1fop-22" value="Добавление в бд user/dislike айди специалиста" style="whiteSpace=wrap;html=1;fillColor=#182E3E;strokeColor=#FFFFFF;fontColor=#FFFFFF;rounded=1;" vertex="1" parent="WIyWlLk6GJQsqaUBKTNV-1">
          <mxGeometry x="500" y="280" width="120" height="50" as="geometry" />
        </mxCell>
        <mxCell id="R9TGq8U2mme78dOF1fop-29" value="Выдача профиля специалиста по определенной username" style="rounded=1;whiteSpace=wrap;html=1;fontSize=12;glass=0;strokeWidth=1;shadow=0;labelBackgroundColor=none;fillColor=#182E3E;strokeColor=#FFFFFF;fontColor=#FFFFFF;" vertex="1" parent="WIyWlLk6GJQsqaUBKTNV-1">
          <mxGeometry x="100" y="220" width="120" height="70" as="geometry" />
        </mxCell>
        <mxCell id="R9TGq8U2mme78dOF1fop-38" value="" style="edgeStyle=orthogonalEdgeStyle;rounded=1;orthogonalLoop=1;jettySize=auto;html=1;strokeColor=#23445D;" edge="1" parent="WIyWlLk6GJQsqaUBKTNV-1" source="R9TGq8U2mme78dOF1fop-33" target="R9TGq8U2mme78dOF1fop-37">
          <mxGeometry relative="1" as="geometry" />
        </mxCell>
        <mxCell id="R9TGq8U2mme78dOF1fop-33" value="Настройки" style="rhombus;whiteSpace=wrap;html=1;fillColor=#182E3E;strokeColor=#FFFFFF;fontColor=#FFFFFF;rounded=1;glass=0;strokeWidth=1;shadow=0;labelBackgroundColor=none;" vertex="1" parent="WIyWlLk6GJQsqaUBKTNV-1">
          <mxGeometry x="720" y="270" width="120" height="80" as="geometry" />
        </mxCell>
        <mxCell id="R9TGq8U2mme78dOF1fop-37" value="Смена языка" style="whiteSpace=wrap;html=1;fillColor=#182E3E;strokeColor=#FFFFFF;fontColor=#FFFFFF;rounded=1;glass=0;strokeWidth=1;shadow=0;labelBackgroundColor=none;" vertex="1" parent="WIyWlLk6GJQsqaUBKTNV-1">
          <mxGeometry x="720" y="380" width="120" height="45" as="geometry" />
        </mxCell>
        <mxCell id="R9TGq8U2mme78dOF1fop-39" value="об проекте + ссылка на админа" style="rounded=1;whiteSpace=wrap;html=1;fontSize=12;glass=0;strokeWidth=1;shadow=0;labelBackgroundColor=none;fillColor=#182E3E;strokeColor=#FFFFFF;fontColor=#FFFFFF;" vertex="1" parent="WIyWlLk6GJQsqaUBKTNV-1">
          <mxGeometry x="900" y="160" width="120" height="40" as="geometry" />
        </mxCell>
        <mxCell id="R9TGq8U2mme78dOF1fop-43" value="" style="edgeStyle=orthogonalEdgeStyle;rounded=1;orthogonalLoop=1;jettySize=auto;html=1;strokeColor=#23445D;" edge="1" parent="WIyWlLk6GJQsqaUBKTNV-1" source="R9TGq8U2mme78dOF1fop-41" target="R9TGq8U2mme78dOF1fop-39">
          <mxGeometry relative="1" as="geometry" />
        </mxCell>
        <mxCell id="R9TGq8U2mme78dOF1fop-44" style="edgeStyle=orthogonalEdgeStyle;rounded=1;orthogonalLoop=1;jettySize=auto;html=1;exitX=1;exitY=1;exitDx=0;exitDy=0;strokeColor=#23445D;entryX=0;entryY=0;entryDx=0;entryDy=0;" edge="1" parent="WIyWlLk6GJQsqaUBKTNV-1" source="R9TGq8U2mme78dOF1fop-41" target="R9TGq8U2mme78dOF1fop-45">
          <mxGeometry relative="1" as="geometry">
            <mxPoint x="920" y="280" as="targetPoint" />
            <Array as="points">
              <mxPoint x="825" y="250" />
              <mxPoint x="900" y="250" />
            </Array>
          </mxGeometry>
        </mxCell>
        <mxCell id="R9TGq8U2mme78dOF1fop-41" value="Настройка, об проекте, контакты" style="rhombus;whiteSpace=wrap;html=1;fillColor=#182E3E;strokeColor=#FFFFFF;fontColor=#FFFFFF;rounded=1;glass=0;strokeWidth=1;shadow=0;labelBackgroundColor=none;" vertex="1" parent="WIyWlLk6GJQsqaUBKTNV-1">
          <mxGeometry x="690" y="120" width="180" height="120" as="geometry" />
        </mxCell>
        <mxCell id="R9TGq8U2mme78dOF1fop-45" value="Ссылки как можно связаться с админом" style="rounded=1;whiteSpace=wrap;html=1;strokeColor=#FFFFFF;fontColor=#FFFFFF;fillColor=#182E3E;" vertex="1" parent="WIyWlLk6GJQsqaUBKTNV-1">
          <mxGeometry x="900" y="290" width="120" height="40" as="geometry" />
        </mxCell>
        <mxCell id="PYJXt7KxjDppgECjX4CF-4" value="" style="edgeStyle=orthogonalEdgeStyle;rounded=1;orthogonalLoop=1;jettySize=auto;html=1;strokeColor=#23445D;" edge="1" parent="WIyWlLk6GJQsqaUBKTNV-1" source="PYJXt7KxjDppgECjX4CF-0" target="PYJXt7KxjDppgECjX4CF-3">
          <mxGeometry relative="1" as="geometry" />
        </mxCell>
        <mxCell id="PYJXt7KxjDppgECjX4CF-0" value="записаться на прием" style="whiteSpace=wrap;html=1;fillColor=#182E3E;strokeColor=#FFFFFF;fontColor=#FFFFFF;rounded=1;" vertex="1" parent="WIyWlLk6GJQsqaUBKTNV-1">
          <mxGeometry x="470" y="460" width="120" height="40" as="geometry" />
        </mxCell>
        <mxCell id="PYJXt7KxjDppgECjX4CF-3" value="календарь" style="whiteSpace=wrap;html=1;fillColor=#182E3E;strokeColor=#FFFFFF;fontColor=#FFFFFF;rounded=1;" vertex="1" parent="WIyWlLk6GJQsqaUBKTNV-1">
          <mxGeometry x="470" y="530" width="120" height="40" as="geometry" />
        </mxCell>
        <mxCell id="PYJXt7KxjDppgECjX4CF-5" value="" style="edgeStyle=orthogonalEdgeStyle;rounded=1;orthogonalLoop=1;jettySize=auto;html=1;strokeColor=#23445D;" edge="1" parent="WIyWlLk6GJQsqaUBKTNV-1" source="PYJXt7KxjDppgECjX4CF-6" target="PYJXt7KxjDppgECjX4CF-7">
          <mxGeometry relative="1" as="geometry" />
        </mxCell>
        <mxCell id="PYJXt7KxjDppgECjX4CF-6" value="связь с мастером" style="whiteSpace=wrap;html=1;fillColor=#182E3E;strokeColor=#FFFFFF;fontColor=#FFFFFF;rounded=1;" vertex="1" parent="WIyWlLk6GJQsqaUBKTNV-1">
          <mxGeometry x="630" y="460" width="120" height="40" as="geometry" />
        </mxCell>
        <mxCell id="PYJXt7KxjDppgECjX4CF-7" value="перенаправление в директ" style="whiteSpace=wrap;html=1;fillColor=#182E3E;strokeColor=#FFFFFF;fontColor=#FFFFFF;rounded=1;" vertex="1" parent="WIyWlLk6GJQsqaUBKTNV-1">
          <mxGeometry x="630" y="530" width="120" height="40" as="geometry" />
        </mxCell>
      </root>
    </mxGraphModel>
  </diagram>
  <diagram id="4FVOCtrVSHcJLGdYvnLK" name="specialist">
    <mxGraphModel dx="1158" dy="619" grid="1" gridSize="10" guides="1" tooltips="1" connect="1" arrows="1" fold="1" page="1" pageScale="1" pageWidth="850" pageHeight="1100" math="0" shadow="0">
      <root>
        <mxCell id="0" />
        <mxCell id="1" parent="0" />
        <mxCell id="OFR-rP9LfR2RkuodmVVg-1" value="&lt;div&gt;Что должна иметь анкета специалиста:&lt;/div&gt;&lt;div&gt;&lt;ul&gt;&lt;li&gt;&lt;div align=&quot;left&quot;&gt;фото работ&lt;br&gt;&lt;/div&gt;&lt;/li&gt;&lt;li&gt;&lt;div align=&quot;left&quot;&gt;теги&amp;nbsp;&lt;/div&gt;&lt;/li&gt;&lt;li&gt;&lt;div align=&quot;left&quot;&gt;текст&lt;/div&gt;&lt;/li&gt;&lt;li&gt;показывать растояние до мастера&lt;br&gt;&lt;div align=&quot;left&quot;&gt;&lt;br&gt;&lt;/div&gt;&lt;/li&gt;&lt;/ul&gt;&lt;/div&gt;" style="whiteSpace=wrap;html=1;aspect=fixed;rounded=1;strokeColor=#FFFFFF;fontColor=#FFFFFF;fillColor=#182E3E;" vertex="1" parent="1">
          <mxGeometry x="250" y="40" width="310" height="310" as="geometry" />
        </mxCell>
      </root>
    </mxGraphModel>
  </diagram>
</mxfile>
